<svg xmlns="http://www.w3.org/2000/svg" width="512" height="512" viewBox="0 0 512 512" version="1.1">
	<rect x="0" y="0" width="100%" height="100%" fill="#49ffd2" />
	<path d="M 321.202 120.656 L 310.904 125.160 292.202 126.543 C 267.832 128.346, 260.638 130.178, 241.500 139.457 C 228.087 145.959, 206.457 160.650, 196.751 169.850 C 194.491 171.993, 192.668 173.025, 192.158 172.451 C 191.694 171.928, 188.751 168.279, 185.619 164.342 C 175.376 151.469, 162.211 148.169, 149.531 155.298 C 143.732 158.558, 138.962 165.553, 131.366 181.942 C 123.566 198.771, 122.552 204.650, 125.493 216 C 129.180 230.227, 138.979 246.934, 145.926 250.838 C 148.191 252.111, 153.270 253.484, 158.150 254.141 C 169.219 255.633, 189.783 254.753, 194.091 252.604 C 195.870 251.717, 197.419 251.106, 197.533 251.246 C 197.648 251.386, 196.222 260.275, 194.364 271 C 190.065 295.817, 189.280 301.450, 188.580 312.500 L 188.011 321.500 190.773 313.041 L 193.536 304.583 195.281 312.041 C 198.979 327.851, 195.959 375.443, 190.600 385.807 C 189.571 387.796, 187.890 388.882, 184.392 389.818 C 177.765 391.590, 173.032 396.839, 168.861 407.042 C 164.891 416.750, 165.709 416.220, 136.386 428.091 C 113.045 437.540, 108.337 439.885, 104.113 444.164 C 98.598 449.751, 93.819 461.043, 89.125 479.573 C 87.473 486.096, 84 507.414, 84 511.034 C 84 511.650, 133.050 512, 219.500 512 C 323.094 512, 355 511.722, 355 510.818 C 355 506.126, 348.063 452.822, 346.857 448.240 C 344.915 440.867, 339.326 435.765, 326.089 429.278 C 315.797 424.234, 313.911 422.916, 311.246 418.907 C 307.497 413.268, 298.817 406.637, 285.407 399.167 C 275.272 393.522, 275.226 393.479, 273.510 388.074 C 271.402 381.436, 270.251 367.082, 271.751 366.152 C 272.329 365.793, 284.209 365.889, 298.151 366.364 C 325.971 367.313, 339.195 366.438, 348.084 363.060 C 355.360 360.295, 358 357.562, 358 352.794 C 358 350.381, 358.533 348.733, 359.423 348.391 C 361.713 347.512, 362.180 344.856, 360.391 342.880 C 358.843 341.169, 358.891 340.569, 361.117 333.774 C 365.692 319.808, 363.384 305.092, 353.113 282.742 C 349.722 275.361, 349.263 273.383, 348.722 263.810 L 348.119 253.120 352.808 250.373 C 355.387 248.861, 364.359 241.143, 372.745 233.220 C 386.872 219.876, 388.307 218.184, 392.247 210.234 L 396.500 201.652 396.500 189.576 C 396.500 178.047, 396.364 177.251, 393.500 172 C 389.696 165.026, 385.939 162.987, 377 163.045 C 373.425 163.069, 368.700 163.736, 366.500 164.529 C 362.480 165.977, 355.823 166.490, 354.766 165.433 C 354.454 165.120, 354.559 163.433, 355.001 161.683 C 357.235 152.821, 357.056 151.256, 353.300 146.766 C 351.337 144.420, 347.537 139.251, 344.855 135.280 L 339.979 128.060 342.521 126.394 C 345.811 124.238, 345.343 123.908, 340.535 124.992 L 336.625 125.874 339.563 123.387 C 342.431 120.959, 342.441 120.917, 340 121.606 C 332.269 123.787, 323.535 125.868, 323.262 125.595 C 323.089 125.422, 325.434 123.403, 328.473 121.108 C 337.359 114.399, 335.739 114.299, 321.202 120.656 M 319.714 122.992 C 315.432 125.107, 312.375 127.114, 312.921 127.451 C 313.466 127.788, 313.634 128.791, 313.293 129.679 C 312.952 130.567, 316.122 128.698, 320.337 125.526 C 330.744 117.693, 330.711 117.560, 319.714 122.992 M 338 127 C 337.099 127.582, 336.975 127.975, 337.691 127.985 C 338.346 127.993, 339.160 127.550, 339.500 127 C 340.267 125.758, 339.921 125.758, 338 127 M 292.736 128.598 C 292.407 128.927, 292.380 129.827, 292.676 130.598 C 293.427 132.556, 287.618 132.475, 285.643 130.500 C 283.954 128.811, 275.488 128.362, 276.510 130.016 C 276.856 130.575, 277.530 130.790, 278.009 130.494 C 278.489 130.198, 279.808 130.950, 280.940 132.166 C 282.962 134.337, 283.645 139.156, 282.393 142.418 C 281.532 144.661, 278.256 144.381, 277.500 142 C 277.144 140.877, 275.987 140, 274.863 140 C 272.004 140, 272.753 144.238, 275.741 144.959 C 277.869 145.473, 277.906 145.644, 276.491 148.364 C 275.671 149.940, 275 151.402, 275 151.614 C 275 152.572, 277.503 151.854, 279.052 150.453 C 280.596 149.056, 280.913 149.056, 282.310 150.453 C 283.161 151.304, 284.564 152, 285.429 152 C 286.293 152, 287 152.402, 287 152.892 C 287 153.936, 299.907 157.263, 305 157.532 C 309.710 157.781, 314 156.961, 314 155.812 C 314 155.296, 313.212 154.954, 312.250 155.052 C 307.375 155.548, 303.777 152.394, 303.471 147.359 C 303.341 145.222, 302.579 143.344, 301.625 142.810 C 299.514 141.628, 299.496 135.875, 301.591 131.823 L 303.183 128.745 298.485 129.450 C 295.225 129.939, 293.990 129.825, 294.452 129.077 C 295.149 127.949, 293.770 127.564, 292.736 128.598 M 315 131.194 C 312.817 132.974, 312.459 133.028, 312.177 131.616 C 311.999 130.727, 311.436 130, 310.927 130 C 310.417 130, 310.113 130.526, 310.250 131.168 C 310.387 131.811, 309.552 132.833, 308.393 133.439 C 306.803 134.272, 306.474 135.049, 307.051 136.610 C 307.472 137.748, 307.463 139.251, 307.031 139.950 C 306.097 141.461, 306.858 145, 308.117 145 C 308.602 145, 309 145.659, 309 146.465 C 309 147.270, 309.870 148.395, 310.934 148.965 C 313.677 150.433, 314.451 150.248, 312.980 148.476 C 312.284 147.638, 311.486 147.181, 311.206 147.461 C 310.926 147.741, 310.081 146.783, 309.329 145.333 C 307.945 142.665, 308.423 138.525, 310.003 139.502 C 310.475 139.794, 311.144 139.575, 311.490 139.016 C 311.835 138.457, 311.416 138, 310.559 138 C 309.025 138, 308.419 135.914, 309.608 134.726 C 310.905 133.428, 319 139.417, 319 141.674 C 319 142.403, 319.723 143, 320.607 143 C 321.686 143, 322.007 143.539, 321.584 144.641 C 321.238 145.543, 321.639 147.326, 322.475 148.603 L 323.996 150.923 328.449 148.712 C 330.898 147.495, 332.924 146.122, 332.951 145.660 C 333.058 143.833, 337.674 141.065, 340.667 141.033 C 344.958 140.988, 345.242 139.290, 341.804 134.250 C 338.844 129.912, 337.120 128.488, 338.936 131.880 C 340.220 134.279, 336.743 138.650, 333.919 138.188 C 332.678 137.985, 331.618 138.745, 330.879 140.366 C 329.665 143.030, 327.372 143.446, 322.884 141.818 C 319.773 140.689, 318.155 137.841, 317.777 132.828 L 317.500 129.156 315 131.194 M 264.421 133.480 C 263.102 135.494, 262.437 135.769, 260.892 134.942 C 258.874 133.862, 251 135.580, 251 137.099 C 251 138.685, 252.921 138.993, 255.497 137.820 C 257.623 136.851, 258.306 136.876, 258.969 137.951 C 260.217 139.969, 258.165 144.703, 255.687 145.524 C 250.369 147.284, 248.611 146.958, 245.895 143.706 L 243.217 140.500 238.358 142.821 C 235.686 144.097, 231.184 146.527, 228.354 148.219 C 223.433 151.162, 223.251 151.422, 224.208 154.166 C 224.758 155.744, 224.862 158.265, 224.440 159.768 C 224.018 161.270, 223.746 162.838, 223.836 163.250 C 223.926 163.662, 223.395 164, 222.655 164 C 221.915 164, 220.453 164.967, 219.405 166.148 L 217.500 168.296 221.500 167.696 C 223.700 167.366, 227.975 166.780, 231 166.395 C 237.273 165.595, 241.690 163.290, 240.065 161.665 C 239.347 160.947, 238.291 161.318, 236.645 162.864 L 234.263 165.101 231.725 162.085 C 228.708 158.500, 227.239 151.622, 229.029 149.465 C 230.421 147.788, 233.584 147.519, 234.500 149 C 234.840 149.550, 236.831 150, 238.924 150 C 243.008 150, 248 153.079, 248 155.598 C 248 156.847, 248.421 156.833, 251 155.500 C 252.650 154.647, 254 153.582, 254 153.135 C 254 151.971, 258.666 150, 259.489 150.817 C 259.867 151.193, 262.398 151.500, 265.113 151.500 L 270.048 151.500 266.873 148.903 C 263.859 146.437, 263.758 146.132, 264.880 142.903 C 266.829 137.292, 268.443 134, 269.244 134 C 269.660 134, 270 133.325, 270 132.500 C 270 130.100, 266.198 130.768, 264.421 133.480 M 326.831 132.704 C 325.684 134.086, 325.792 134.201, 327.674 133.604 C 328.861 133.227, 330.118 133.382, 330.468 133.948 C 330.846 134.560, 330.475 134.736, 329.552 134.382 C 328.574 134.006, 328 134.341, 328 135.286 C 328 136.769, 330.841 138.493, 331.763 137.570 C 332.663 136.671, 331.018 132.221, 329.582 131.670 C 328.792 131.367, 327.554 131.832, 326.831 132.704 M 288.750 137.115 C 287.238 138.244, 286 139.735, 286 140.430 C 286 142.193, 289.993 146.565, 291.267 146.197 C 291.844 146.031, 292.583 146.256, 292.908 146.697 C 293.234 147.139, 294.512 148.066, 295.750 148.758 C 297.864 149.941, 298 149.835, 298 146.997 C 298 143.623, 294.051 135.053, 292.500 135.059 C 291.950 135.061, 290.262 135.987, 288.750 137.115 M 312.835 140.877 C 313.570 141.343, 314.113 142.014, 314.042 142.370 C 313.971 142.726, 314.198 144.540, 314.548 146.403 C 314.915 148.362, 314.681 150.727, 313.992 152.015 C 313.197 153.500, 313.167 154.015, 313.900 153.562 C 314.505 153.188, 315 153.359, 315 153.941 C 315 154.523, 315.376 155, 315.834 155 C 316.609 155, 315.568 144.062, 314.526 141.250 C 314.271 140.563, 313.486 140.007, 312.781 140.015 C 311.781 140.027, 311.793 140.216, 312.835 140.877 M 275.079 142.583 C 275.127 143.748, 275.364 143.985, 275.683 143.188 C 275.972 142.466, 275.936 141.603, 275.604 141.271 C 275.272 140.939, 275.036 141.529, 275.079 142.583 M 343.588 145.857 C 342.746 147.219, 343.883 149.741, 345.643 150.417 C 346.772 150.850, 347.055 150.343, 346.816 148.321 C 346.490 145.571, 344.639 144.158, 343.588 145.857 M 344 146.882 C 344 147.432, 344.450 148.160, 345 148.500 C 345.550 148.840, 346 148.668, 346 148.118 C 346 147.568, 345.550 146.840, 345 146.500 C 344.450 146.160, 344 146.332, 344 146.882 M 330.602 149.524 C 329.008 150.355, 325.183 152.549, 322.102 154.401 C 319.021 156.252, 315.488 158.074, 314.250 158.451 C 312.996 158.832, 312 159.937, 312 160.947 C 312 162.567, 313.352 162.830, 324.750 163.427 C 331.762 163.793, 338.807 164.349, 340.405 164.660 L 343.310 165.227 342.679 158.469 C 341.749 148.508, 337.948 145.693, 330.602 149.524 M 157.527 153.873 C 155.787 154.246, 154.050 155.521, 153.340 156.946 C 152.585 158.460, 151.060 159.523, 149.313 159.753 C 145.705 160.230, 141 164.705, 141 167.660 C 141 170.323, 136.994 179, 135.765 179 C 134.714 179, 131 187.547, 131 189.966 C 131 191.914, 134.060 193.199, 135.937 192.039 C 136.770 191.524, 136.661 190.963, 135.547 190.039 C 133.565 188.394, 133.556 184.613, 135.530 182.975 C 136.698 182.005, 137.641 181.971, 139.526 182.830 C 141.814 183.872, 142.103 183.690, 143.509 180.323 C 145.181 176.323, 144.974 175.121, 143.020 177.476 C 142.324 178.314, 141.308 179, 140.761 179 C 140.215 179, 141.395 177.199, 143.384 174.997 C 147.110 170.873, 147.872 169, 145.826 169 C 143.950 169, 149.151 163.985, 153.158 161.929 C 155.170 160.898, 156.994 159.517, 157.213 158.861 C 157.616 157.651, 167.320 157.462, 169.207 158.628 C 169.724 158.948, 169.598 158.328, 168.925 157.252 C 167.896 155.604, 162.336 152.730, 160.929 153.118 C 160.693 153.183, 159.162 153.523, 157.527 153.873 M 260.821 154.513 C 254.985 155.720, 249.392 158.388, 244 162.539 L 240.500 165.234 257.500 164.596 C 303.705 162.863, 306 162.713, 306 161.425 C 306 160.729, 304.538 159.868, 302.750 159.513 C 300.962 159.158, 295.675 157.984, 291 156.905 C 278.933 154.118, 267.222 153.190, 260.821 154.513 M 346.422 154.658 C 346.678 155.325, 346.432 156.023, 345.875 156.208 C 345.318 156.394, 345.020 158.560, 345.212 161.023 C 345.543 165.278, 345.599 165.351, 346.340 162.500 C 347.610 157.609, 348.583 156.500, 351.601 156.500 C 353.351 156.500, 354.577 155.917, 354.754 155 C 354.977 153.847, 353.992 153.494, 350.500 153.473 C 347.343 153.454, 346.099 153.816, 346.422 154.658 M 213.985 159.028 C 213.388 160.143, 212.472 160.792, 211.950 160.469 C 211.427 160.146, 211 160.359, 211 160.941 C 211 162.694, 214.014 162.132, 214.708 160.250 C 215.064 159.287, 215.837 158.169, 216.427 157.765 C 217.156 157.266, 217.110 157.026, 216.285 157.015 C 215.617 157.007, 214.582 157.913, 213.985 159.028 M 165.500 161 C 165.840 161.550, 167.187 162, 168.494 162 C 169.801 162, 172.050 162.449, 173.492 162.997 C 175.113 163.613, 175.888 163.627, 175.521 163.034 C 174.922 162.065, 168.610 160.016, 166.191 160.006 C 165.471 160.003, 165.160 160.450, 165.500 161 M 308 161.500 C 308 162.325, 308.450 163, 309 163 C 309.550 163, 310 162.325, 310 161.500 C 310 160.675, 309.550 160, 309 160 C 308.450 160, 308 160.675, 308 161.500 M 150.121 165.628 C 148.368 166.856, 148.116 167.453, 149.094 168.058 C 150.759 169.087, 154 167.374, 154 165.465 C 154 163.572, 152.995 163.614, 150.121 165.628 M 374.255 165.266 C 374.417 165.752, 374.876 166.116, 375.275 166.075 C 375.674 166.034, 377.200 166, 378.667 166 C 382.250 166, 380.946 164.866, 377.052 164.597 C 375.352 164.479, 374.093 164.780, 374.255 165.266 M 200.500 168.423 C 198.850 169.742, 197.725 171.028, 198 171.282 C 198.545 171.785, 214.623 168.711, 215.372 167.960 C 215.625 167.707, 213.732 167.372, 211.166 167.215 C 208.600 167.058, 205.825 166.726, 205 166.477 C 204.175 166.228, 202.150 167.104, 200.500 168.423 M 365.694 166.639 C 364.895 167.438, 365.798 169, 367.059 169 C 367.577 169, 368 168.325, 368 167.500 C 368 165.954, 366.820 165.513, 365.694 166.639 M 370.750 169.303 C 368.617 169.900, 367 170.980, 367 171.807 C 367 172.931, 367.851 173.121, 370.750 172.642 C 372.813 172.301, 375.288 172.017, 376.250 172.011 C 377.212 172.005, 378 171.363, 378 170.583 C 378 169.804, 378.563 168.940, 379.250 168.662 C 381.596 167.716, 374.511 168.250, 370.750 169.303 M 297.750 170.716 C 296.238 170.945, 295 171.580, 295 172.125 C 295 172.671, 294.550 172.840, 294 172.500 C 292.766 171.738, 292.720 173.132, 293.878 176.185 C 294.691 178.329, 295.235 178.476, 301.254 178.170 C 307.036 177.877, 307.876 177.568, 308.876 175.373 C 309.494 174.016, 310 172.252, 310 171.453 C 310 169.210, 308.042 169.735, 307.031 172.250 L 306.127 174.500 306.063 172.250 C 305.997 169.909, 304.681 169.666, 297.750 170.716 M 150.768 172.375 C 144.701 178.441, 140.819 191.059, 140.882 204.500 C 140.956 220.228, 144.648 230.119, 153.164 237.408 C 165.252 247.756, 186.538 247.669, 196.335 237.233 C 198.935 234.464, 199.121 233.767, 198.573 228.856 C 198.244 225.910, 197.760 220.350, 197.497 216.500 C 196.475 201.550, 195.577 198.861, 188.530 189.629 C 186.666 187.186, 183.500 187.975, 177.837 192.294 C 166.016 201.310, 162.754 216.611, 170.651 225.997 C 172.080 227.695, 173.020 229.314, 172.740 229.594 C 171.805 230.529, 166.218 222.840, 165.605 219.774 C 163.469 209.093, 166.035 201.047, 173.936 193.657 C 178.416 189.466, 178.659 189.001, 177.107 187.597 C 174.113 184.888, 168.189 183, 162.680 183 C 155.565 183, 151.366 185.793, 147.750 192.930 C 146.165 196.058, 145 197.518, 145 196.375 C 145 195.284, 146.356 192.254, 148.013 189.641 C 151.285 184.482, 157.070 181.061, 162.591 181.022 C 167.162 180.989, 174.920 183.577, 177.489 185.990 C 179.141 187.541, 180.439 187.928, 182.370 187.443 C 183.816 187.080, 185 186.430, 185 185.999 C 185 185.568, 182.290 182.707, 178.978 179.640 C 172.541 173.680, 169.830 172.576, 158.920 171.470 C 153.634 170.935, 152.030 171.113, 150.768 172.375 M 318.880 172.644 C 317.659 174.116, 317.777 174.209, 320.008 173.532 C 323.519 172.466, 324.859 171, 322.322 171 C 321.180 171, 319.631 171.740, 318.880 172.644 M 233.037 174.769 C 231.328 176.153, 230.922 177.391, 231.176 180.450 L 231.500 184.362 235.260 178.681 C 238.522 173.753, 238.769 173, 237.121 173 C 236.076 173, 234.238 173.796, 233.037 174.769 M 216 175 C 214.667 175.862, 214.667 175.984, 216 176.103 C 216.825 176.177, 218.029 176.172, 218.675 176.092 C 220.851 175.823, 221.191 178.078, 219.507 181.626 C 218.318 184.131, 217.376 184.974, 216.247 184.541 C 215.374 184.206, 214.332 184.463, 213.931 185.112 C 213.484 185.836, 212.486 185.988, 211.351 185.507 C 208.378 184.247, 206 184.243, 206 185.498 C 206 186.138, 204.830 187.288, 203.399 188.054 C 201.064 189.304, 200.656 189.250, 199.399 187.532 C 198.630 186.479, 198 184.873, 198 183.964 C 198 181.895, 201.108 179, 203.329 179 C 204.248 179, 205 178.550, 205 178 C 205 176.854, 202.627 176.725, 198.125 177.625 C 194.726 178.305, 194.383 179.635, 195.642 187.250 C 196.134 190.226, 196.705 191, 198.409 191 C 201.224 191, 204.137 194.486, 203.749 197.388 C 203.579 198.652, 202.217 200.822, 200.720 202.208 C 199.224 203.595, 198 205.015, 198 205.365 C 198 206.698, 202.306 205.919, 204.846 204.126 C 208.283 201.699, 214 202.316, 214 205.113 C 214 206.151, 213.550 207, 213 207 C 212.450 207, 212 207.863, 212 208.917 C 212 209.971, 211.460 211.013, 210.799 211.234 C 209.959 211.514, 209.926 211.836, 210.689 212.308 C 211.327 212.702, 212.511 211.428, 213.538 209.241 C 214.505 207.184, 215.567 205.275, 215.898 205 C 216.229 204.725, 216.995 203.113, 217.600 201.417 C 218.626 198.542, 218.554 198.363, 216.539 198.748 C 213.729 199.285, 211.772 196.849, 212.178 193.319 C 212.614 189.529, 215.602 189.033, 217.177 192.489 C 218.344 195.050, 218.437 194.939, 220.679 188.310 C 221.946 184.565, 222.986 179.813, 222.991 177.750 C 222.999 174.320, 222.765 174.001, 220.250 174.015 C 218.738 174.024, 216.825 174.467, 216 175 M 389.794 178.037 C 387.364 181.509, 387.183 182.342, 388.016 186.202 L 388.945 190.500 388.551 186.129 C 388.314 183.495, 388.520 182.120, 389.070 182.670 C 390.435 184.035, 391.959 193.344, 391.007 194.497 C 390.551 195.049, 389.863 197.192, 389.476 199.261 C 389.090 201.330, 388.326 203.298, 387.780 203.636 C 387.169 204.014, 387.046 203.431, 387.460 202.125 C 388.413 199.123, 387.151 199.472, 385.987 202.533 C 385.331 204.259, 385.386 205.645, 386.158 206.882 C 386.782 207.881, 387.006 209.841, 386.655 211.239 C 385.923 214.156, 383.043 215.687, 381.866 213.784 C 381.244 212.778, 380.701 212.871, 379.359 214.213 C 377.740 215.831, 377.752 215.960, 379.572 216.536 C 380.633 216.872, 382.243 217.539, 383.152 218.020 C 385.833 219.439, 390.325 211.799, 390.659 205.252 C 390.935 199.849, 392.340 196, 394.035 196 C 395.477 196, 395.140 192.770, 393.468 190.559 C 391.581 188.064, 391.601 185.014, 393.523 182.271 C 394.802 180.445, 394.842 179.623, 393.773 177.133 L 392.500 174.170 389.794 178.037 M 283.246 182.716 C 282.095 186.997, 280.862 191.400, 280.507 192.500 C 280.061 193.884, 280.331 193.730, 281.384 192 C 282.221 190.625, 283.477 187.025, 284.174 184 L 285.441 178.500 286.064 183.500 L 286.686 188.500 286.828 183 C 287.056 174.128, 285.588 174.011, 283.246 182.716 M 317.563 177.931 C 316.595 179, 316.100 180.352, 316.461 180.937 C 316.822 181.522, 316.641 182, 316.059 182 C 315.477 182, 315.018 183.463, 315.041 185.250 C 315.079 188.255, 315.272 188.058, 317.600 182.643 C 320.330 176.295, 320.318 174.886, 317.563 177.931 M 345 176.909 C 345 177.374, 345.600 178.253, 346.333 178.862 C 347.340 179.697, 347.667 179.615, 347.667 178.527 C 347.667 177.735, 347.067 176.856, 346.333 176.574 C 345.600 176.293, 345 176.444, 345 176.909 M 356.544 182.358 C 354.643 186.773, 354.758 187.138, 357.794 186.344 C 360.077 185.747, 360.458 183.948, 359.032 180.500 C 358.297 178.723, 358.020 178.930, 356.544 182.358 M 373.081 180.346 C 366.099 181.849, 365.524 183.552, 371.687 184.476 C 374.312 184.869, 377.733 186.098, 379.288 187.205 C 382.632 189.586, 382.231 190.852, 378.837 188.630 C 377.552 187.789, 374.542 186.789, 372.150 186.407 L 367.800 185.712 369.616 189.106 C 372.510 194.513, 372.137 204.202, 368.772 211.055 C 367.271 214.111, 364.861 217.711, 363.417 219.055 C 361.033 221.274, 361.118 220.953, 364.333 215.593 C 370.085 206.003, 371.488 194.785, 367.601 189.469 C 366.411 187.842, 366.218 188.045, 365.594 191.584 C 364.370 198.518, 360.813 208.411, 358.361 211.699 C 357.049 213.459, 353.776 216.135, 351.088 217.646 C 346.605 220.166, 346.277 220.599, 347.140 222.869 C 347.658 224.231, 347.854 225.938, 347.576 226.662 C 346.754 228.806, 351.542 229.344, 356.476 227.663 C 358.964 226.815, 361 226.500, 361 226.963 C 361 228.301, 355.091 230, 350.434 230 C 348.004 230, 345.994 230.517, 345.767 231.200 C 345.141 233.076, 347.156 242, 348.204 242 C 350.878 242, 358.704 236.001, 364.303 229.661 C 383.409 208.027, 388.185 198.161, 385.685 185.500 C 384.564 179.823, 384.338 179.491, 381.500 179.340 C 379.850 179.252, 376.062 179.705, 373.081 180.346 M 295.862 190.645 C 293.802 195.188, 293.172 197.557, 293.954 197.818 C 294.769 198.090, 294.655 198.723, 293.576 199.916 C 292.133 201.511, 292.455 201.625, 298.408 201.625 L 304.787 201.625 305.232 195.563 C 305.846 187.212, 305.017 184.576, 301.653 184.181 C 299.176 183.889, 298.668 184.457, 295.862 190.645 M 355.751 188.250 C 354.112 189.507, 346.661 210.994, 347.555 211.888 C 348.658 212.991, 353.671 208.054, 355.842 203.727 C 358.262 198.902, 360.033 187, 358.330 187 C 357.809 187, 356.648 187.563, 355.751 188.250 M 221.561 194.614 C 220.733 200.571, 222.080 206.561, 225.117 210.422 C 227.584 213.558, 228.538 213.282, 226.997 209.879 C 226.405 208.571, 225.099 203.450, 224.096 198.500 L 222.272 189.500 221.561 194.614 M 283 193 C 281.718 193.828, 281.754 193.972, 283.250 193.985 C 284.212 193.993, 285 193.550, 285 193 C 285 191.780, 284.887 191.780, 283 193 M 346.564 194.707 C 346.022 196.132, 346.136 196.247, 347.124 195.267 C 347.808 194.588, 348.115 193.781, 347.807 193.474 C 347.499 193.166, 346.940 193.721, 346.564 194.707 M 137.220 197.250 C 135.222 199.687, 135.279 209.214, 137.287 208.443 C 138.110 208.128, 138.634 205.794, 138.740 201.975 C 138.916 195.611, 138.817 195.302, 137.220 197.250 M 279.762 199.434 C 274.249 202.481, 273.378 205.875, 278.435 204.606 C 280.532 204.079, 284.930 198.354, 283.824 197.591 C 283.646 197.468, 281.818 198.297, 279.762 199.434 M 130.839 202.903 C 129.271 204.141, 127.496 204.744, 126.518 204.369 C 125.082 203.817, 124.953 204.253, 125.558 207.616 C 126.679 213.846, 127.160 214.146, 130.808 210.883 C 133.565 208.417, 134.065 207.331, 133.808 204.362 L 133.500 200.800 130.839 202.903 M 309.015 202.191 C 309.007 203.121, 309.450 204.160, 310 204.500 C 311.266 205.282, 311.266 203.958, 310 202 C 309.165 200.707, 309.029 200.734, 309.015 202.191 M 289.105 205.085 C 285.288 206.612, 287.525 207.385, 292.221 206.162 C 294.575 205.549, 297.625 204.873, 299 204.660 C 300.375 204.447, 299.250 204.240, 296.500 204.200 C 293.750 204.160, 290.422 204.558, 289.105 205.085 M 272.886 209.713 C 272.214 210.969, 271.896 212.229, 272.179 212.512 C 272.781 213.114, 278 209.195, 278 208.142 C 278 206.415, 273.992 207.646, 272.886 209.713 M 295.052 207.947 C 293.906 208.672, 294.114 208.974, 296.052 209.395 C 299.667 210.182, 316.017 210.602, 315.200 209.886 C 312.282 207.330, 298.173 205.972, 295.052 207.947 M 300.500 212.579 C 299.400 212.747, 289.275 213.837, 278 215 C 250.228 217.864, 251.126 217.674, 247.321 221.479 C 243.039 225.761, 242.719 230.847, 246.541 233.853 C 251.817 238.004, 264.340 239.084, 276.123 236.404 C 279.983 235.526, 283.366 235.033, 283.641 235.307 C 284.881 236.548, 264.723 247.997, 261.294 247.999 C 260.631 248, 258.202 251.262, 255.898 255.250 C 253.593 259.238, 247.234 270.002, 241.766 279.171 C 222.453 311.558, 221.093 325.494, 235.719 341.131 C 240.635 346.387, 244.149 347.830, 252.500 348.027 C 260.335 348.211, 301.801 347.001, 308.811 346.384 L 315.121 345.828 314.573 342.664 L 314.026 339.500 315.441 342.567 L 316.856 345.634 323.372 344.660 C 329.624 343.726, 329.871 343.581, 329.492 341.093 C 329.275 339.667, 328.871 336.475, 328.595 334 C 327.899 327.772, 325.114 319.642, 318.661 305 C 309.001 283.079, 305.955 271.777, 304.512 252.500 C 303.938 244.837, 304.153 242.535, 305.956 237 C 308.480 229.254, 309.605 217.507, 308.158 214 C 307.281 211.874, 307.095 212.474, 306.914 218 C 306.796 221.575, 306.536 223.150, 306.336 221.500 C 305.452 214.219, 304.831 212.009, 303.705 212.136 C 303.042 212.211, 301.600 212.410, 300.500 212.579 M 201.706 214.864 C 200.662 216.131, 200.818 216.158, 202.873 215.063 L 205.246 213.798 203.373 216.368 C 202.343 217.781, 201.162 218.951, 200.750 218.969 C 200.338 218.986, 200.047 221.363, 200.103 224.250 L 200.207 229.500 201.160 225.500 C 201.684 223.300, 202.309 220.537, 202.548 219.360 C 203.093 216.680, 205.021 215.906, 208.665 216.905 C 211.594 217.708, 217 216.447, 217 214.961 C 217 214.498, 215.819 214.731, 214.376 215.480 C 211.516 216.964, 208.617 216.441, 209.334 214.571 C 210.002 212.832, 203.165 213.094, 201.706 214.864 M 316.134 214.866 C 314.960 216.040, 314 217.888, 314 218.974 C 314 220.060, 312.567 224.447, 310.815 228.724 C 307.856 235.950, 307.638 237.285, 307.742 247.598 C 307.905 263.938, 310.662 274.334, 320.311 295 C 327.905 311.266, 332.870 327.717, 333.136 337.498 C 333.211 340.249, 333.467 341.488, 333.706 340.250 C 333.944 339.012, 334.558 338, 335.070 338 C 335.581 338, 336.014 339.012, 336.032 340.250 C 336.062 342.366, 336.145 342.393, 337.431 340.697 C 338.260 339.603, 338.946 339.338, 339.174 340.021 C 339.758 341.774, 349.953 337.376, 353.872 333.680 C 364.466 323.689, 363.217 309.440, 349.034 278.500 C 345.252 270.250, 340.387 259.639, 338.222 254.920 C 333.813 245.309, 332.187 243.794, 320.617 238.522 C 312.409 234.781, 311.989 234.880, 310.100 241 L 309.019 244.500 309.364 239.948 C 309.776 234.520, 313.468 228.519, 318.487 225.121 C 320.419 223.813, 322 222.125, 322 221.371 C 322 219.507, 329.981 219.547, 334.497 221.434 C 338.547 223.127, 340.171 227.258, 337.740 229.688 C 336.186 231.242, 322.804 233.246, 320.327 232.295 C 319.595 232.014, 317.759 232.106, 316.248 232.500 C 313.542 233.205, 313.534 233.228, 315.748 234.075 C 316.984 234.547, 322.937 234.836, 328.977 234.717 C 339.428 234.510, 340.089 234.370, 342.646 231.811 C 347.771 226.682, 345.339 219.365, 337.333 215.823 C 334.859 214.729, 329.557 213.585, 325.552 213.282 C 319.035 212.790, 318.044 212.956, 316.134 214.866 M 135 217.441 C 135 218.234, 135.408 219.134, 135.907 219.442 C 136.405 219.751, 136.578 219.102, 136.290 218.001 C 135.679 215.666, 135 215.371, 135 217.441 M 226.128 217.900 C 225.374 218.378, 224.925 219.275, 225.131 219.894 C 225.341 220.524, 226.059 220.135, 226.762 219.010 C 228.163 216.767, 228.097 216.652, 226.128 217.900 M 194.118 221.770 C 191.202 227.485, 187.286 231.815, 182.067 235.093 C 179.555 236.671, 178.220 237.971, 179.100 237.981 C 183.037 238.028, 193.058 228.473, 195.710 222.142 C 197.723 217.339, 196.521 217.058, 194.118 221.770 M 258.878 221.524 C 253.280 223.294, 251.566 225.135, 252.404 228.474 C 253.802 234.042, 261.691 235.831, 276.665 233.976 C 287.917 232.582, 291.991 234.807, 294.071 243.479 L 294.795 246.500 294.898 243.184 C 295.024 239.078, 293.783 236.590, 289.132 231.620 C 285.975 228.248, 285.860 227.969, 288.250 229.485 C 289.832 230.489, 291 230.768, 291 230.141 C 291 228.741, 285.235 225.738, 283.682 226.328 C 283.032 226.575, 280.213 225.516, 277.418 223.975 C 270.988 220.429, 264.890 219.623, 258.878 221.524 M 239.079 222.583 C 239.127 223.748, 239.364 223.985, 239.683 223.188 C 239.972 222.466, 239.936 221.603, 239.604 221.271 C 239.272 220.939, 239.036 221.529, 239.079 222.583 M 130.548 225.770 C 131.347 227.681, 132 229.414, 132 229.622 C 132 229.830, 132.890 230, 133.977 230 C 136.781 230, 139.319 234.271, 138.562 237.716 C 138.085 239.889, 138.596 241.290, 140.851 243.991 C 143.586 247.267, 143.904 247.389, 146.318 246.098 C 150.910 243.640, 158.845 247.186, 158.967 251.750 C 159.010 253.369, 172.123 253.477, 173.728 251.872 C 174.349 251.251, 176.577 250.587, 178.678 250.395 C 187.016 249.636, 195 247.530, 195 246.090 C 195 245.674, 192.412 245.578, 189.250 245.876 C 182.424 246.519, 167.928 246.607, 163 246.034 C 161.075 245.811, 158.612 245.037, 157.527 244.314 C 156.443 243.591, 154.614 243, 153.465 243 C 152.315 243, 150.216 241.762, 148.801 240.250 C 145.988 237.243, 142.175 230.372, 143.917 231.449 C 145.219 232.253, 145.307 231.033, 144.086 229.104 C 143.578 228.302, 142.488 227.983, 141.523 228.353 C 140.421 228.776, 138.856 228.010, 136.971 226.125 C 135.391 224.545, 132.973 223.037, 131.597 222.774 C 129.107 222.298, 129.103 222.310, 130.548 225.770 M 212.419 223.500 C 208.972 225.477, 207 228.045, 207 230.559 C 207 232.010, 206.567 232.851, 206 232.500 C 204.564 231.613, 204.764 234.351, 206.250 235.922 C 207.283 237.015, 207.099 237.038, 205.194 236.057 C 203.925 235.404, 202.639 234.224, 202.337 233.435 C 201.239 230.575, 200.500 232.110, 200.500 237.250 C 200.500 240.137, 200.178 245.555, 199.784 249.288 C 199.383 253.088, 199.451 255.839, 199.938 255.538 C 200.417 255.243, 202.460 256.463, 204.479 258.250 C 206.497 260.038, 208.646 261.500, 209.253 261.500 C 209.860 261.500, 210.696 262.772, 211.112 264.326 C 211.780 266.822, 211.523 267.297, 208.917 268.393 C 207.294 269.075, 206.222 269.889, 206.534 270.201 C 207.161 270.828, 207.711 274.728, 207.886 279.794 C 207.957 281.849, 208.470 282.995, 209.250 282.841 C 209.938 282.705, 211.908 283.343, 213.629 284.260 C 220.950 288.158, 218.520 295.087, 210.599 292.900 C 208.620 292.353, 207 291.461, 207 290.918 C 207 290.288, 206.366 290.268, 205.250 290.863 C 203.759 291.659, 203.548 292.997, 203.827 299.910 C 204.013 304.535, 204.550 307.778, 205.077 307.453 C 205.584 307.139, 206 305.364, 206 303.509 C 206 300.589, 206.307 300.169, 208.292 300.381 C 209.553 300.515, 211.241 301.035, 212.042 301.536 C 212.844 302.037, 214.168 302.459, 214.984 302.474 C 215.800 302.488, 216.630 303.341, 216.830 304.368 C 217.032 305.410, 216.757 305.968, 216.209 305.629 C 215.669 305.295, 214.722 305.630, 214.106 306.373 C 213.269 307.381, 213.386 308.966, 214.571 312.634 C 216.114 317.411, 216.264 317.545, 220.079 317.545 C 223.518 317.545, 224 317.259, 224 315.216 C 224 313.022, 223.874 312.975, 221.818 314.415 C 220.209 315.542, 219.290 315.656, 218.318 314.849 C 216.784 313.576, 216.525 308, 218 308 C 218.550 308, 219 307.175, 219 306.167 C 219 304.263, 221.395 303.890, 223.855 305.410 C 225.410 306.372, 226.507 305.387, 227.487 302.149 C 228.147 299.969, 227.984 299.845, 225.259 300.443 C 220.885 301.404, 219.138 298.912, 221.806 295.519 C 222.915 294.109, 223.584 292.124, 223.306 291.064 C 222.663 288.602, 228.068 285.636, 232.116 286.230 C 234.519 286.583, 235.362 286.051, 237.483 282.846 C 238.868 280.754, 240 278.358, 240 277.521 C 240 276.685, 240.900 275.100, 242 274 C 244.454 271.546, 244.463 271.354, 242.152 270.750 C 240.036 270.197, 238.541 264.643, 239.869 262.270 C 240.368 261.378, 240.287 259.571, 239.674 257.948 C 238.171 253.966, 240.010 252.268, 246.734 251.427 C 251.382 250.847, 252.539 251.017, 253.575 252.434 C 254.720 253.999, 254.897 254.006, 255.734 252.510 C 256.428 251.271, 255.703 249.939, 252.705 246.941 C 248.706 242.941, 246.338 241.833, 247.334 244.427 C 248.236 246.778, 245.341 248.512, 243.250 246.872 C 238.761 243.352, 238.970 241.244, 244.004 239.266 C 247.914 237.730, 247.958 237.659, 245.897 236.215 C 244.736 235.402, 242.714 232.433, 241.403 229.618 C 240.092 226.803, 239.015 225.287, 239.010 226.250 C 239.002 227.623, 238.140 228, 235.008 228 C 232.100 228, 230.678 228.543, 229.768 230 C 229.081 231.100, 227.727 232, 226.759 232 C 224.977 232, 221 228.678, 221 227.189 C 221 226.742, 221.856 225.459, 222.901 224.336 C 224.799 222.299, 224.794 222.296, 219.483 222.398 C 216.557 222.454, 213.378 222.950, 212.419 223.500 M 236.079 224.583 C 236.127 225.748, 236.364 225.985, 236.683 225.188 C 236.972 224.466, 236.936 223.603, 236.604 223.271 C 236.272 222.939, 236.036 223.529, 236.079 224.583 M 360.250 235.672 C 346.115 249.994, 344.847 252.160, 353.040 247.980 C 355.639 246.653, 357 245.279, 357 243.980 C 357 242.891, 357.900 241.100, 359 240 C 360.100 238.900, 361 237.598, 361 237.107 C 361 236.080, 363.397 235.017, 365.832 234.964 C 368.844 234.899, 372.811 230.667, 373.532 226.750 C 373.912 224.688, 373.835 223.058, 373.361 223.130 C 372.888 223.201, 366.988 228.845, 360.250 235.672 M 306 226.090 C 306 226.323, 305.581 227.973, 305.070 229.757 C 304.558 231.540, 304.522 233, 304.990 233 C 306.025 233, 307.431 227.097, 306.595 226.262 C 306.268 225.934, 306 225.857, 306 226.090 M 233.046 231.730 C 232.246 232.045, 230.692 233.140, 229.594 234.164 C 227.782 235.852, 227.742 236.170, 229.160 237.588 C 231.298 239.727, 239 237.827, 239 235.161 C 239 231.895, 236.414 230.404, 233.046 231.730 M 340.162 235.484 C 338.726 236.275, 338.243 237.032, 338.912 237.445 C 339.510 237.815, 340 239.141, 340 240.392 C 340 241.643, 340.309 242.976, 340.687 243.354 C 341.822 244.488, 341.920 248.333, 340.883 251.066 C 340.233 252.779, 340.265 254.567, 340.978 256.442 L 342.046 259.252 344.135 256.876 C 346.013 254.740, 346.162 253.692, 345.605 246.500 C 344.942 237.920, 344.148 233.941, 343.133 234.098 C 342.785 234.152, 341.448 234.776, 340.162 235.484 M 215.967 238.063 C 215.249 239.403, 214.067 240.021, 212.590 239.827 C 210.066 239.497, 204 244.802, 204 247.340 C 204 248.162, 204.897 250.928, 205.994 253.486 C 207.728 257.531, 208.283 258.051, 210.244 257.468 C 213.527 256.493, 215.128 254.107, 213.961 251.928 C 212.563 249.315, 212.779 248, 214.607 248 C 215.566 248, 215.999 247.441, 215.682 246.614 C 215.247 245.480, 215.702 245.503, 218.181 246.740 C 220.464 247.879, 220.877 248.463, 219.855 249.111 C 219.110 249.583, 217.825 249.969, 217 249.969 C 215.667 249.969, 215.667 249.852, 217 248.909 C 218.315 247.979, 218.316 247.898, 217.010 248.254 C 215.938 248.546, 215.614 249.746, 215.855 252.539 C 216.230 256.885, 218.220 258.921, 222.143 258.968 C 224.936 259.002, 226 257.471, 226 253.418 C 226 252.088, 226.394 251, 226.875 251 C 227.356 251, 228.025 249.625, 228.361 247.944 C 229.119 244.156, 227.118 240.857, 222.361 238.050 C 218.028 235.494, 217.341 235.495, 215.967 238.063 M 255.825 243.326 C 255.452 245.151, 255.592 245.808, 256.218 245.182 C 256.751 244.649, 257.011 243.377, 256.794 242.356 C 256.503 240.981, 256.251 241.233, 255.825 243.326 M 325 247.777 C 325 249.091, 328.055 253, 329.082 253 C 329.615 253, 329.353 251.650, 328.500 250 C 327.075 247.244, 325 245.927, 325 247.777 M 190.566 249.898 C 189.179 250.441, 188.980 250.870, 189.864 251.416 C 191.359 252.340, 194 251.456, 194 250.031 C 194 248.854, 193.302 248.826, 190.566 249.898 M 275 252.559 C 275 254.677, 275.405 255.868, 276 255.500 C 276.550 255.160, 277 253.559, 277 251.941 C 277 250.323, 276.550 249, 276 249 C 275.450 249, 275 250.602, 275 252.559 M 280.462 252.294 C 280.024 254.041, 280.410 255.696, 281.657 257.407 C 284.320 261.063, 284.929 260.583, 283.755 255.750 C 282.423 250.262, 281.275 249.057, 280.462 252.294 M 243 256.010 C 243 256.463, 243.534 257.011, 244.186 257.229 C 244.838 257.446, 245.401 259.471, 245.436 261.729 C 245.471 263.987, 245.809 266.143, 246.186 266.520 C 246.563 266.897, 246.834 265.874, 246.788 264.247 C 246.680 260.433, 247.649 258.928, 249.706 259.717 C 250.950 260.195, 250.859 259.859, 249.332 258.332 C 247.177 256.177, 243 254.646, 243 256.010 M 201 262 C 201 262.550, 201.477 263, 202.059 263 C 202.641 263, 202.840 262.550, 202.500 262 C 202.160 261.450, 201.684 261, 201.441 261 C 201.198 261, 201 261.450, 201 262 M 219.643 264.500 C 218.818 265.325, 217.480 266, 216.670 266 C 214.949 266, 211 272.261, 211 274.989 C 211 276.020, 212.438 277.887, 214.195 279.139 C 221.009 283.991, 234.996 279.936, 235.528 272.954 C 235.846 268.775, 233.946 265.797, 231.373 266.443 C 230.135 266.753, 228.847 266.561, 228.509 266.015 C 228.156 265.444, 228.555 265.276, 229.448 265.618 C 230.330 265.957, 231 265.685, 231 264.990 C 231 263.819, 229.480 263.954, 225.879 265.444 C 224.948 265.829, 223.595 265.452, 222.700 264.558 C 221.316 263.173, 220.976 263.167, 219.643 264.500 M 200.500 267 C 199.684 268.320, 200.880 270.192, 202.069 269.457 C 203.284 268.707, 203.276 266, 202.059 266 C 201.541 266, 200.840 266.450, 200.500 267 M 223.755 271.438 C 221.932 272.770, 222.398 274, 224.726 274 C 225.491 274, 225.864 273.588, 225.553 273.085 C 225.242 272.582, 225.531 271.990, 226.195 271.768 C 226.899 271.534, 227.001 271.119, 226.440 270.772 C 225.911 270.445, 224.702 270.744, 223.755 271.438 M 204.531 279.293 C 204.103 280.279, 204.034 281.367, 204.376 281.710 C 205.392 282.725, 206.211 281.299, 205.743 279.328 C 205.329 277.581, 205.275 277.580, 204.531 279.293 M 198.362 280.500 C 198.045 281.325, 197.004 282, 196.048 282 C 194.632 282, 194.041 283.679, 192.858 291.067 C 192.060 296.054, 191.741 300.340, 192.149 300.592 C 193.191 301.236, 194.932 294.455, 194.323 292.126 C 193.636 289.500, 196.475 285.460, 200.049 283.980 C 203.517 282.543, 204.171 279, 200.969 279 C 199.851 279, 198.678 279.675, 198.362 280.500 M 200.349 296.607 C 199.965 297.648, 199.054 298.860, 198.325 299.300 C 196.421 300.449, 196.693 302, 198.800 302 C 199.790 302, 201.104 302.504, 201.721 303.121 C 202.549 303.949, 202.696 303.100, 202.283 299.871 C 201.618 294.666, 201.277 294.090, 200.349 296.607 M 202.119 307.500 C 201.953 311.124, 203.197 314.138, 204.631 313.588 C 205.384 313.299, 206.006 313.611, 206.014 314.281 C 206.021 314.952, 206.300 316.519, 206.634 317.765 C 207.107 319.531, 206.900 319.899, 205.693 319.436 C 204.515 318.984, 204.276 319.341, 204.694 320.937 C 205.241 323.030, 206.999 324.837, 207.001 323.309 C 207.002 322.864, 208.099 321.225, 209.438 319.668 C 211.874 316.836, 211.884 313.447, 209.454 314.379 C 208.745 314.651, 207.903 314.190, 207.582 313.354 C 207.261 312.518, 206.437 312.024, 205.749 312.257 C 205.015 312.506, 204.028 311.200, 203.355 309.090 C 202.652 306.888, 202.174 306.273, 202.119 307.500 M 325.031 312.500 C 325.031 313.050, 325.467 314.175, 326 315 C 326.533 315.825, 326.969 316.050, 326.969 315.500 C 326.969 314.950, 326.533 313.825, 326 313 C 325.467 312.175, 325.031 311.950, 325.031 312.500 M 353.639 323.498 C 352.686 325.982, 352.867 331.200, 353.885 330.571 C 354.371 330.271, 354.967 328.679, 355.208 327.036 C 355.726 323.506, 354.606 320.980, 353.639 323.498 M 205.116 328.668 C 205.052 329.311, 204.709 330.661, 204.353 331.668 C 203.851 333.089, 203.984 333.244, 204.947 332.356 C 205.629 331.727, 205.973 330.377, 205.710 329.356 C 205.447 328.335, 205.180 328.026, 205.116 328.668 M 348.667 328.667 C 347.687 329.647, 347.854 333, 348.883 333 C 349.369 333, 349.982 331.875, 350.245 330.500 C 350.708 328.078, 350.036 327.298, 348.667 328.667 M 246 333.443 C 246 335.192, 249.519 339.940, 251.668 341.090 C 255.494 343.138, 255.057 341.766, 250.396 337.097 C 247.978 334.676, 246 333.031, 246 333.443 M 205.588 334.857 C 205.247 335.410, 205.425 336.144, 205.984 336.490 C 207.861 337.650, 207.150 344.427, 204.953 346.308 C 203.828 347.272, 202.518 347.820, 202.044 347.527 C 201.569 347.234, 200.465 347.268, 199.590 347.604 C 198.310 348.095, 198 349.863, 198 356.674 C 198 364.680, 198.108 365.101, 200 364.500 C 201.440 364.043, 202 364.320, 202 365.492 C 202 366.386, 202.419 366.859, 202.931 366.543 C 203.443 366.226, 204.132 366.405, 204.463 366.940 C 204.794 367.475, 205.679 367.677, 206.431 367.388 C 207.183 367.100, 208.083 367.325, 208.431 367.888 C 208.779 368.452, 209.684 368.675, 210.442 368.384 C 212.606 367.553, 213.322 371.656, 211.871 376.570 C 211.152 379.007, 210.204 381, 209.766 381 C 209.327 381, 209.037 382.238, 209.120 383.750 C 209.413 389.053, 207.552 391.514, 201.591 393.710 C 198.516 394.843, 196 395.441, 196 395.040 C 196 394.639, 194.904 393.035, 193.564 391.476 L 191.128 388.641 190.478 391.230 C 189.962 393.287, 190.453 394.415, 192.865 396.721 C 195.861 399.584, 195.889 399.707, 195.002 405.982 C 194.279 411.101, 193.557 412.806, 191.302 414.716 L 188.500 417.090 191.875 416.438 C 194.531 415.925, 195.101 416.075, 194.549 417.143 C 194.163 417.889, 194.784 417.435, 195.929 416.132 C 197.409 414.450, 198.371 414.054, 199.256 414.764 C 199.940 415.313, 202.188 415.951, 204.250 416.181 L 208 416.598 208 412.700 C 208 408.599, 210.223 402.890, 212.581 400.933 C 213.684 400.017, 214.723 400.428, 217.524 402.887 C 219.474 404.599, 221.729 406, 222.535 406 C 223.341 406, 224 406.436, 224 406.969 C 224 407.501, 223.329 407.680, 222.508 407.365 C 220.544 406.611, 219.347 409.777, 221.014 411.317 C 222.025 412.251, 222.167 412.138, 221.691 410.782 C 221.359 409.837, 221.518 408.798, 222.044 408.473 C 222.570 408.148, 223 408.562, 223 409.394 C 223 411.534, 225.154 416, 226.186 416 C 226.662 416, 226.329 414.604, 225.447 412.897 C 224.133 410.356, 224.057 409.276, 225.029 406.931 C 226.875 402.473, 229.672 402.203, 233.083 406.152 C 235.712 409.195, 235.927 409.998, 235.451 414.964 C 234.769 422.069, 232.691 423.691, 229 420 C 226.633 417.633, 226.289 418.557, 228.590 421.100 C 230.407 423.107, 229.667 427, 227.468 427 C 226.699 427, 225.537 428.012, 224.885 429.250 C 223.415 432.042, 222.078 432.965, 219.473 432.985 C 216.964 433.004, 211.706 427.209, 212.456 425.253 C 212.759 424.464, 212.067 422.498, 210.917 420.884 C 209.240 418.529, 208.173 417.993, 205.514 418.172 C 202.469 418.377, 202.273 418.588, 203.100 420.763 C 204.462 424.346, 204.180 428.963, 202.496 430.647 C 201.156 431.987, 200.380 431.567, 195.425 426.826 C 184.738 416.599, 185.748 420.393, 196.602 431.247 C 203.284 437.929, 204.184 438.525, 205.074 436.862 C 206.620 433.974, 211.760 434.379, 213.182 437.500 C 213.808 438.875, 214.699 440, 215.161 440 C 215.622 440, 216 440.633, 216 441.406 C 216 442.343, 215.298 442.629, 213.898 442.263 C 212.668 441.942, 211.423 442.292, 210.898 443.107 C 210.138 444.285, 209.834 444.269, 208.924 443 C 208.332 442.175, 207.994 442.040, 208.174 442.700 C 208.353 443.359, 211.790 446.858, 215.811 450.474 L 223.121 457.050 226.072 454.948 C 229.471 452.528, 229.238 451.498, 225.103 450.671 C 223.396 450.329, 221.089 448.672, 219.595 446.714 C 217.320 443.730, 217.167 443.045, 218.262 440.724 C 219.696 437.687, 221.783 436.928, 226.569 437.705 C 229.755 438.222, 230.098 438.009, 231.507 434.637 C 232.939 431.210, 233.218 431.046, 236.681 431.596 C 245.785 433.043, 252.651 441.223, 250.486 448.044 C 249.085 452.459, 242.895 449.462, 241.449 443.667 C 240.880 441.390, 240.326 440.946, 238.621 441.404 C 237.454 441.717, 236.162 441.979, 235.750 441.986 C 235.338 441.994, 235 442.466, 235 443.035 C 235 443.716, 235.727 443.681, 237.127 442.932 C 239.286 441.776, 240.946 442.908, 240.985 445.561 C 240.993 446.145, 241.806 447.495, 242.790 448.561 C 244.311 450.208, 244.393 450.872, 243.339 452.969 L 242.097 455.438 241.026 452.969 L 239.954 450.500 240.481 453.189 C 240.770 454.668, 240.556 456.157, 240.004 456.498 C 239.452 456.839, 239.029 459.229, 239.063 461.809 C 239.110 465.291, 239.339 465.976, 239.952 464.465 C 240.405 463.346, 241.502 461.829, 242.388 461.093 C 243.275 460.357, 244.032 458.348, 244.070 456.628 C 244.114 454.679, 244.397 454.066, 244.820 455 C 245.952 457.498, 250.142 457.464, 252.045 454.940 L 253.739 452.695 258.264 454.886 C 262.393 456.884, 265.242 460.654, 265.531 464.500 C 265.573 465.050, 265.978 466.772, 266.431 468.326 C 267.111 470.657, 267.664 471.050, 269.588 470.567 C 271.284 470.142, 272.213 470.530, 272.995 471.991 C 273.587 473.096, 274.730 474, 275.535 474 C 276.341 474, 277 474.623, 277 475.383 C 277 476.144, 277.906 477.004, 279.013 477.293 C 283.105 478.363, 283.914 471.949, 280.219 467.742 C 278.803 466.129, 278.477 466.113, 276.292 467.544 C 270.487 471.348, 267.372 464.128, 272.452 458.646 C 275.512 455.344, 276.220 455.352, 281.572 458.750 C 285.480 461.231, 286.793 463.110, 289.084 469.500 C 289.685 471.179, 289.842 471.018, 290.056 468.500 C 290.196 466.850, 290.214 464.425, 290.096 463.112 C 289.854 460.426, 286.384 457.084, 283.785 457.033 C 281.489 456.989, 279.684 453.393, 280.443 450.373 C 281.123 447.660, 285.021 445.411, 287.436 446.337 C 289.662 447.191, 289.373 450.090, 287 450.710 C 284.786 451.289, 284.405 452.514, 286.112 453.569 C 287.124 454.195, 288.238 453.157, 289.408 450.500 C 289.655 449.938, 290.293 450.141, 290.866 450.965 C 291.598 452.019, 291.809 450.825, 291.619 446.715 C 291.470 443.520, 291.780 441, 292.320 441 C 293.728 441, 292.185 422.738, 290.697 421.792 C 290.039 421.373, 288.882 421.024, 288.128 421.015 C 287.087 421.004, 287.027 421.327, 287.877 422.352 C 288.626 423.254, 288.782 426.276, 288.346 431.430 C 287.784 438.085, 287.363 439.371, 285.306 440.719 C 280.898 443.607, 275.429 438.536, 277.403 433.391 C 277.843 432.247, 277.592 431.942, 276.543 432.345 C 275.730 432.657, 274.810 432.502, 274.500 432 C 274.190 431.498, 273.310 431.328, 272.545 431.621 C 270.602 432.367, 269.232 429.297, 269.172 424.066 C 269.116 419.251, 271.248 416.549, 273.986 417.965 C 274.819 418.396, 276.400 418.409, 277.500 417.994 C 278.809 417.500, 280.164 417.802, 281.422 418.869 C 282.479 419.766, 283.030 419.963, 282.647 419.306 C 282.157 418.464, 283.361 418.021, 286.725 417.806 L 291.500 417.500 287.710 414.601 L 283.920 411.702 280.959 414.540 C 278.066 417.311, 277.961 417.332, 276.481 415.439 C 275.648 414.372, 274.566 412.820, 274.076 411.989 C 272.754 409.746, 274.020 404.808, 276.053 404.276 C 277.716 403.841, 277.701 403.608, 275.813 400.408 C 274.708 398.535, 273.391 397.258, 272.886 397.571 C 272.381 397.883, 272.194 398.506, 272.472 398.955 C 273.249 400.211, 267.666 400.960, 266.250 399.789 C 265.563 399.220, 265 397.487, 265 395.937 C 265 394.386, 264.519 392.821, 263.932 392.458 C 262.878 391.806, 263.175 386.144, 264.365 384.219 C 264.702 383.673, 264.352 382.707, 263.586 382.072 C 262.523 381.189, 262.070 381.221, 261.669 382.208 C 261.008 383.832, 254.705 377.391, 255.271 375.671 C 255.816 374.016, 259.833 373.617, 261.555 375.046 C 262.578 375.895, 263 375.917, 263 375.122 C 263 373.086, 264.540 373.952, 266.341 377 C 268.574 380.781, 269.777 380.842, 269.235 377.146 C 268.853 374.548, 268.080 374.053, 260.604 371.620 C 256.088 370.151, 251.355 367.947, 250.088 366.724 C 247.609 364.332, 247.652 364.562, 250.844 370.736 C 252.475 373.892, 252.285 375.685, 250.159 377.193 C 249.146 377.912, 247.754 379.561, 247.066 380.857 C 246.197 382.494, 245.496 382.896, 244.772 382.172 C 244.048 381.448, 243.290 381.568, 242.293 382.564 C 240.267 384.590, 239.490 384.370, 238.130 381.385 C 236.590 378.006, 237.513 375.210, 240.297 374.813 C 243.154 374.407, 243.887 370.465, 241.234 369.771 C 239.897 369.422, 239.010 370.080, 238.125 372.079 C 236.298 376.207, 232.924 376.287, 230.750 372.254 C 228.473 368.029, 228.531 367.304, 231.457 363.468 C 232.808 361.696, 233.708 360.042, 233.457 359.791 C 233.206 359.540, 233.788 359.395, 234.750 359.470 C 237.301 359.668, 242 363.003, 242 364.615 C 242 366.219, 243.840 366.396, 246 365 C 247.156 364.253, 247.189 364.027, 246.144 364.015 C 244.432 363.996, 239.599 359.841, 239.199 358.044 C 238.787 356.196, 236 352.304, 236 353.577 C 236 354.140, 236.532 355.132, 237.183 355.783 C 237.834 356.434, 238.094 357.239, 237.762 357.572 C 237.429 357.905, 236.464 356.900, 235.618 355.338 C 234.556 353.379, 234.068 353.037, 234.040 354.234 C 233.977 356.968, 228.821 361.743, 225.250 362.375 C 223.308 362.719, 222 362.534, 222 361.916 C 222 361.347, 222.365 361.108, 222.812 361.384 C 223.860 362.032, 223.754 354.893, 222.691 353.250 C 222.246 352.563, 220.896 352.045, 219.691 352.100 C 217.672 352.192, 217.696 352.256, 220 352.920 C 222.115 353.529, 222.457 354.159, 222.219 357.017 C 221.848 361.489, 221.420 361.744, 218.652 359.142 C 217.152 357.733, 215.627 357.163, 214.405 357.553 C 212.611 358.128, 212.602 358.079, 214.250 356.721 C 216.873 354.560, 216.368 354.035, 212.919 355.337 C 210.222 356.355, 209.658 356.253, 208.390 354.519 C 206.806 352.352, 207.343 347.567, 209.459 345 C 211.510 342.512, 212.431 340.616, 211.227 341.360 C 210.618 341.736, 209.834 341.036, 209.437 339.765 C 208.371 336.349, 206.299 333.707, 205.588 334.857 M 254.306 337.532 C 255.849 338.889, 257.649 339.984, 258.306 339.964 C 258.963 339.944, 258.150 338.821, 256.500 337.469 C 252.587 334.262, 250.652 334.317, 254.306 337.532 M 260.595 337.847 C 260.274 338.366, 260.748 339.073, 261.649 339.419 C 263.859 340.267, 264.376 339.557, 262.613 338.094 C 261.758 337.384, 260.943 337.284, 260.595 337.847 M 335 345.083 C 313.970 349.430, 306.290 350.196, 280 350.572 C 261.659 350.835, 254.494 351.292, 251.500 352.391 C 248.149 353.621, 247.906 353.879, 250 353.980 C 252.695 354.111, 252.472 354.088, 277 356.726 C 301.651 359.376, 310.001 359.008, 324.160 354.643 C 330.573 352.665, 340.574 350.307, 346.385 349.402 C 358.218 347.559, 361.229 346.186, 359.090 343.608 C 357.225 341.361, 351.234 341.728, 335 345.083 M 227.116 344.095 C 227.052 344.972, 228.005 346.547, 229.233 347.595 C 231.434 349.473, 231.445 349.473, 229.983 347.563 C 228.634 345.800, 228.662 345.686, 230.302 346.301 C 231.448 346.731, 231.866 346.593, 231.451 345.920 C 231.092 345.339, 230.196 345.094, 229.461 345.376 C 228.727 345.658, 227.924 345.127, 227.679 344.195 C 227.300 342.758, 227.214 342.743, 227.116 344.095 M 210.647 360.250 C 212.246 368.953, 217.484 372.259, 220.813 366.665 C 222.483 363.859, 222.467 363.803, 219.212 361.061 C 216.847 359.068, 215.193 358.432, 213.314 358.791 C 211.516 359.135, 210.923 358.934, 211.410 358.145 C 211.800 357.515, 211.653 357, 211.084 357 C 210.462 357, 210.288 358.294, 210.647 360.250 M 347.900 358.434 C 346.828 359.506, 325.626 363.387, 317.500 363.999 L 308.500 364.676 319.662 364.838 C 325.893 364.929, 334.108 364.372, 338.259 363.578 C 345.547 362.183, 353 359.642, 353 358.551 C 353 357.903, 348.533 357.800, 347.900 358.434 M 217.189 374.039 C 215.985 375.160, 215 376.680, 215 377.417 C 215 378.153, 214.325 379.315, 213.500 380 C 211.912 381.318, 211.371 384.507, 212.895 383.565 C 213.388 383.260, 214.130 383.796, 214.545 384.756 C 215.837 387.740, 216.030 390, 214.994 390 C 214.447 390, 214 390.468, 214 391.040 C 214 392.685, 218.250 398, 219.566 398 C 220.220 398, 221.311 398.669, 221.989 399.487 C 222.797 400.460, 223.753 400.678, 224.754 400.118 C 225.595 399.647, 227.120 399.480, 228.142 399.747 C 229.321 400.056, 230 399.704, 230 398.786 C 230 397.989, 231.101 396.749, 232.447 396.028 C 235.465 394.413, 236.302 392.432, 234.996 389.993 C 234.448 388.969, 234 387.157, 234 385.967 C 234 384.776, 232.762 382.598, 231.250 381.126 C 229.738 379.654, 227.259 376.998, 225.742 375.225 C 222.551 371.493, 220.262 371.176, 217.189 374.039 M 239.500 373 C 239.160 373.550, 239.359 374, 239.941 374 C 240.523 374, 241 373.550, 241 373 C 241 372.450, 240.802 372, 240.559 372 C 240.316 372, 239.840 372.450, 239.500 373 M 198.565 375.329 C 197.103 376.398, 196.961 377.058, 197.838 378.698 C 198.438 379.819, 198.622 381.045, 198.245 381.421 C 197.869 381.798, 198.323 381.813, 199.255 381.456 C 200.783 380.869, 200.797 380.654, 199.403 379.260 C 198.040 377.897, 198.032 377.539, 199.333 376.239 C 201.556 374.015, 203.308 375.706, 202.578 379.371 C 201.984 382.351, 202.025 382.401, 203.425 380.406 C 206.508 376.014, 202.852 372.194, 198.565 375.329 M 221.686 383.457 C 220.759 384.384, 220 385.561, 220 386.071 C 220 386.582, 219.030 387, 217.845 387 C 215.801 387, 215.777 387.096, 217.388 388.876 C 219.171 390.847, 225.100 392.283, 227.558 391.339 C 229.612 390.551, 229.341 388.694, 226.954 387.203 C 225.829 386.501, 224.562 384.991, 224.140 383.849 C 223.419 381.901, 223.267 381.876, 221.686 383.457 M 267.500 383 C 267.160 383.550, 267.332 384, 267.882 384 C 268.432 384, 269.160 383.550, 269.500 383 C 269.840 382.450, 269.668 382, 269.118 382 C 268.568 382, 267.840 382.450, 267.500 383 M 220.616 386.463 C 219.207 388.614, 219.298 388.756, 222.797 389.830 C 227.528 391.282, 228.293 390.170, 224.842 386.858 L 222.088 384.217 220.616 386.463 M 248.668 385.422 C 248.368 386.205, 247.087 386.992, 245.821 387.172 C 244.460 387.366, 243.373 388.317, 243.160 389.500 C 242.699 392.064, 239.086 396, 237.194 396 C 234.706 396, 236.376 403.866, 239.472 406.737 C 241.955 409.039, 242.224 409.083, 244.547 407.561 C 247.556 405.589, 247.627 404.066, 244.871 400.564 C 243.290 398.554, 243.033 397.567, 243.871 396.729 C 244.710 395.890, 245 395.936, 245 396.907 C 245 397.626, 245.620 397.976, 246.378 397.685 C 248.371 396.920, 250 398.965, 250 402.231 C 250 405.115, 252.619 407.193, 253.851 405.287 C 254.208 404.735, 255.293 404.405, 256.261 404.555 C 258.518 404.903, 260.647 401.247, 259.093 399.693 C 258.492 399.092, 258 397.790, 258 396.800 C 258 395.810, 257.565 395, 257.032 395 C 256.467 395, 256.390 394.120, 256.848 392.882 C 258.115 389.456, 255.079 384.072, 251.857 384.033 C 250.403 384.015, 248.968 384.640, 248.668 385.422 M 200.019 399.974 C 198.392 402.259, 198.137 403.387, 198.919 404.849 C 200.587 407.966, 203.734 408.154, 206.001 405.272 C 208.526 402.061, 208.551 399.365, 206.066 398.035 C 203.144 396.472, 202.325 396.734, 200.019 399.974 M 187 398.801 C 187 399.307, 185.908 401.331, 184.572 403.298 C 182.488 406.370, 182.349 407.045, 183.591 408.076 C 184.740 409.029, 185.445 408.907, 187.019 407.483 C 189.122 405.580, 189.776 399.597, 188 398.500 C 187.450 398.160, 187 398.296, 187 398.801 M 246.584 401.250 C 247.626 402.488, 248.540 403.631, 248.614 403.792 C 248.689 403.952, 248.750 402.940, 248.750 401.542 C 248.750 399.654, 248.228 399, 246.720 399 C 244.720 399, 244.718 399.033, 246.584 401.250 M 187.136 402.281 C 187.061 403.811, 186.328 405.321, 185.506 405.636 C 184.684 405.952, 184.281 406.645, 184.610 407.178 C 185.578 408.745, 188.175 404.175, 187.704 401.735 C 187.342 399.859, 187.250 399.947, 187.136 402.281 M 258.200 408.200 C 257.540 408.860, 257 410.043, 257 410.828 C 257 411.926, 256.105 412.112, 253.125 411.636 C 250.136 411.158, 248.679 411.465, 246.758 412.975 C 245.389 414.053, 244.004 414.670, 243.680 414.347 C 242.419 413.085, 237.887 415.076, 238.134 416.783 C 238.271 417.728, 238.042 419.513, 237.624 420.751 C 236.783 423.242, 240.404 429.487, 242.086 428.447 C 242.599 428.130, 244.201 428.799, 245.645 429.935 C 248.993 432.569, 249.578 432.533, 253.220 429.469 C 255.151 427.844, 256.904 427.152, 258.117 427.537 C 259.243 427.894, 260.698 427.445, 261.719 426.424 C 263.335 424.808, 263.223 424.532, 259.716 421.500 C 256.100 418.375, 254.941 416, 257.031 416 C 257.599 416, 258.322 416.675, 258.638 417.500 C 259.010 418.470, 260.559 419, 263.018 419 C 266.780 419, 266.821 418.958, 266.641 415.250 C 266.318 408.579, 261.688 404.712, 258.200 408.200 M 218.638 413.500 C 218.955 414.325, 219.391 415, 219.607 415 C 219.823 415, 220 414.325, 220 413.500 C 220 412.675, 219.564 412, 219.031 412 C 218.499 412, 218.322 412.675, 218.638 413.500 M 215.750 418.662 C 216.438 418.940, 217.563 418.940, 218.250 418.662 C 218.938 418.385, 218.375 418.158, 217 418.158 C 215.625 418.158, 215.063 418.385, 215.750 418.662 M 253.250 419.720 C 252.563 419.966, 252 420.820, 252 421.619 C 252 422.785, 251.586 422.849, 249.893 421.943 C 248.369 421.127, 247.483 421.117, 246.693 421.907 C 245.902 422.698, 246.310 423, 248.165 423 C 249.576 423, 251.890 423.912, 253.307 425.027 L 255.883 427.053 255.300 423.277 C 254.614 418.830, 254.806 419.164, 253.250 419.720 M 213.599 420.839 C 213.343 421.254, 214.341 421.600, 215.817 421.609 C 220.301 421.634, 227 423.119, 227 424.088 C 227 424.590, 227.520 425, 228.155 425 C 229.677 425, 226.400 421.369, 224.746 421.223 C 224.061 421.163, 221.377 420.882, 218.783 420.599 C 216.188 420.316, 213.856 420.424, 213.599 420.839 M 279 429 C 278.093 430.695, 278.240 431, 279.965 431 C 281.084 431, 282.225 431, 282.500 431 C 282.775 431, 282.887 430.663, 282.750 430.250 C 282.613 429.837, 281.973 429.557, 281.329 429.626 C 280.685 429.695, 280.396 429.132, 280.686 428.376 C 281.496 426.266, 280.208 426.743, 279 429 M 259.354 431.696 C 258.174 431.925, 256.479 432.918, 255.587 433.904 C 254.185 435.453, 254.126 436.395, 255.154 440.848 C 255.808 443.682, 256.875 446, 257.526 446 C 258.176 446, 259.920 447.123, 261.401 448.496 C 262.882 449.868, 265.803 451.265, 267.893 451.599 C 271.191 452.126, 271.969 451.855, 273.786 449.545 C 276.848 445.652, 276.304 439.930, 272.706 438.195 C 271.218 437.478, 270 436.066, 270 435.059 C 270 433.842, 269.077 433.069, 267.250 432.755 C 265.738 432.495, 263.825 432.057, 263 431.782 C 262.175 431.506, 260.534 431.468, 259.354 431.696 M 264.383 441.190 C 264.042 441.741, 264.555 442.936, 265.524 443.846 C 267.163 445.386, 267.243 445.383, 266.693 443.801 C 266.274 442.598, 266.525 442.264, 267.551 442.658 C 268.348 442.964, 269 442.768, 269 442.224 C 269 440.837, 265.136 439.971, 264.383 441.190 M 229 447.500 C 228.293 448.352, 227.940 449.273, 228.215 449.548 C 228.490 449.823, 229.293 449.352, 230 448.500 C 230.707 447.648, 231.060 446.727, 230.785 446.452 C 230.510 446.177, 229.707 446.648, 229 447.500 M 215 448 C 215 448.550, 215.450 449, 216 449 C 216.550 449, 217 448.550, 217 448 C 217 447.450, 216.550 447, 216 447 C 215.450 447, 215 447.450, 215 448 M 236.500 450 C 236.840 450.550, 237.316 451, 237.559 451 C 237.802 451, 238 450.550, 238 450 C 238 449.450, 237.523 449, 236.941 449 C 236.359 449, 236.160 449.450, 236.500 450 M 229.615 457.465 C 227.535 460.639, 227.580 461.257, 230 462.768 C 231.889 463.948, 232 463.767, 232 459.508 C 232 457.029, 231.827 455, 231.615 455 C 231.403 455, 230.503 456.109, 229.615 457.465 M 235.500 461 C 235.160 461.550, 235.359 462, 235.941 462 C 236.523 462, 237 461.550, 237 461 C 237 460.450, 236.802 460, 236.559 460 C 236.316 460, 235.840 460.450, 235.500 461 M 251.682 464.387 C 251.300 465.381, 251.765 465.640, 253.325 465.300 C 255.086 464.917, 255.214 465.031, 254 465.898 C 252.208 467.178, 253.896 467.352, 255.885 466.092 C 256.996 465.389, 256.861 464.996, 255.201 464.107 C 252.560 462.694, 252.324 462.713, 251.682 464.387 M 262.302 469.345 C 262.655 470.265, 262.486 472.222, 261.926 473.693 C 261.128 475.795, 261.230 476.549, 262.405 477.207 C 263.228 477.667, 264.592 478.735, 265.437 479.580 C 266.819 480.961, 266.911 480.783, 266.354 477.808 C 266.014 475.989, 265.345 474.072, 264.868 473.550 C 264.390 473.028, 264 471.817, 264 470.859 C 264 469.901, 263.474 468.793, 262.830 468.395 C 262.042 467.908, 261.870 468.218, 262.302 469.345 M 275.538 469.605 C 273.945 471.198, 274.013 471.439, 276.672 473.614 C 278.227 474.887, 279.789 475.944, 280.143 475.964 C 281.484 476.039, 281.781 473.195, 280.664 470.972 C 279.136 467.934, 277.615 467.528, 275.538 469.605 M 251.609 478.423 C 251.909 479.205, 252.882 480.125, 253.771 480.466 C 255.099 480.975, 255.058 480.721, 253.539 479.043 C 251.361 476.636, 250.862 476.476, 251.609 478.423 M 283.489 480.750 C 283.092 481.988, 282.144 483, 281.383 483 C 280.623 483, 280 483.398, 280 483.883 C 280 484.369, 279.066 485.011, 277.925 485.309 C 276.169 485.769, 276.021 486.170, 276.960 487.926 C 277.571 489.067, 277.717 490.003, 277.285 490.006 C 276.853 490.010, 277.789 490.685, 279.364 491.506 C 280.940 492.328, 282.370 493, 282.543 493 C 283.305 493, 285.176 482.218, 284.719 480.456 C 284.245 478.626, 284.166 478.645, 283.489 480.750" stroke="none" fill="black" fill-rule="evenodd"/>
</svg>